<svg xmlns="http://www.w3.org/2000/svg" xmlns:xlink="http://www.w3.org/1999/xlink" contentStyleType="text/css" data-diagram-type="SEQUENCE" height="994px" preserveAspectRatio="none" style="width:1249px;height:994px;background:#FFFFFF;" version="1.1" viewBox="0 0 1249 994" width="1249px" zoomAndPan="magnify"><title>Backend Flow: Admin Dashboard &amp; User Management (app.py)</title><defs/><g><text fill="#000000" font-family="sans-serif" font-size="14" font-weight="bold" lengthAdjust="spacing" textLength="497.5469" x="374.8149" y="27.9951">Backend Flow: Admin Dashboard &amp; User Management (app.py)</text><g><title>Browser</title><rect fill="#FFFFFF" height="216.9297" style="stroke:#181818;stroke-width:1;" width="10" x="220.3438" y="199.9922"/></g><g><title>Browser</title><rect fill="#FFFFFF" height="116.5313" style="stroke:#181818;stroke-width:1;" width="10" x="220.3438" y="446.0547"/></g><g><title>Browser</title><rect fill="#FFFFFF" height="116.5313" style="stroke:#181818;stroke-width:1;" width="10" x="220.3438" y="591.7188"/></g><g><title>Browser</title><rect fill="#FFFFFF" height="158.6641" style="stroke:#181818;stroke-width:1;" width="10" x="220.3438" y="737.3828"/></g><g><title>Flask App</title><rect fill="#FFFFFF" height="187.7969" style="stroke:#181818;stroke-width:1;" width="10" x="555.7622" y="229.125"/></g><g><title>Flask App</title><rect fill="#FFFFFF" height="87.3984" style="stroke:#181818;stroke-width:1;" width="10" x="555.7622" y="475.1875"/></g><g><title>Flask App</title><rect fill="#FFFFFF" height="87.3984" style="stroke:#181818;stroke-width:1;" width="10" x="555.7622" y="620.8516"/></g><g><title>Flask App</title><rect fill="#FFFFFF" height="129.5313" style="stroke:#181818;stroke-width:1;" width="10" x="555.7622" y="766.5156"/></g><g><title>Auth Manager</title><rect fill="#FFFFFF" height="87.3984" style="stroke:#181818;stroke-width:1;" width="10" x="823.1211" y="258.2578"/></g><g><title>Database</title><rect fill="#FFFFFF" height="29.1328" style="stroke:#181818;stroke-width:1;" width="10" x="1197.7764" y="287.3906"/></g><g><title>Database</title><rect fill="#FFFFFF" height="29.1328" style="stroke:#181818;stroke-width:1;" width="10" x="1197.7764" y="504.3203"/></g><g><title>Database</title><rect fill="#FFFFFF" height="29.1328" style="stroke:#181818;stroke-width:1;" width="10" x="1197.7764" y="649.9844"/></g><g><title>Database</title><rect fill="#FFFFFF" height="29.1328" style="stroke:#181818;stroke-width:1;" width="10" x="1197.7764" y="837.7813"/></g><g><title>Admin</title><rect fill="#000000" fill-opacity="0.00000" height="795.4531" width="8" x="30.4321" y="118.5938"/><line style="stroke:#181818;stroke-width:0.5;stroke-dasharray:5,5;" x1="34" x2="34" y1="118.5938" y2="914.0469"/></g><g><title>Browser</title><rect fill="#000000" fill-opacity="0.00000" height="795.4531" width="8" x="221.3438" y="118.5938"/><line style="stroke:#181818;stroke-width:0.5;stroke-dasharray:5,5;" x1="224.8242" x2="224.8242" y1="118.5938" y2="914.0469"/></g><g><title>Flask App</title><rect fill="#000000" fill-opacity="0.00000" height="795.4531" width="8" x="556.7622" y="118.5938"/><line style="stroke:#181818;stroke-width:0.5;stroke-dasharray:5,5;" x1="559.9004" x2="559.9004" y1="118.5938" y2="914.0469"/></g><g><title>Auth Manager</title><rect fill="#000000" fill-opacity="0.00000" height="795.4531" width="8" x="824.1211" y="118.5938"/><line style="stroke:#181818;stroke-width:0.5;stroke-dasharray:5,5;" x1="827.2666" x2="827.2666" y1="118.5938" y2="914.0469"/></g><g><title>Database</title><rect fill="#000000" fill-opacity="0.00000" height="795.4531" width="8" x="1198.7764" y="118.5938"/><line style="stroke:#181818;stroke-width:0.5;stroke-dasharray:5,5;" x1="1202.376" x2="1202.376" y1="118.5938" y2="914.0469"/></g><g class="participant participant-head" data-participant="A"><text fill="#000000" font-family="sans-serif" font-size="14" lengthAdjust="spacing" textLength="44.8643" x="9" y="115.292">Admin</text><ellipse cx="34.4321" cy="50.7969" fill="#E2E2F0" rx="8" ry="8" style="stroke:#181818;stroke-width:0.5;"/><path d="M34.4321,58.7969 L34.4321,85.7969 M21.4321,66.7969 L47.4321,66.7969 M34.4321,85.7969 L21.4321,100.7969 M34.4321,85.7969 L47.4321,100.7969" fill="none" style="stroke:#181818;stroke-width:0.5;"/></g><g class="participant participant-tail" data-participant="A"><text fill="#000000" font-family="sans-serif" font-size="14" lengthAdjust="spacing" textLength="44.8643" x="9" y="926.042">Admin</text><ellipse cx="34.4321" cy="937.8438" fill="#E2E2F0" rx="8" ry="8" style="stroke:#181818;stroke-width:0.5;"/><path d="M34.4321,945.8438 L34.4321,972.8438 M21.4321,953.8438 L47.4321,953.8438 M34.4321,972.8438 L21.4321,987.8438 M34.4321,972.8438 L47.4321,987.8438" fill="none" style="stroke:#181818;stroke-width:0.5;"/></g><g class="participant participant-head" data-participant="B"><rect fill="#E2E2F0" height="30.2969" rx="2.5" ry="2.5" style="stroke:#181818;stroke-width:0.5;" width="71.0391" x="189.8242" y="87.2969"/><text fill="#000000" font-family="sans-serif" font-size="14" lengthAdjust="spacing" textLength="57.0391" x="196.8242" y="107.292">Browser</text></g><g class="participant participant-tail" data-participant="B"><rect fill="#E2E2F0" height="30.2969" rx="2.5" ry="2.5" style="stroke:#181818;stroke-width:0.5;" width="71.0391" x="189.8242" y="913.0469"/><text fill="#000000" font-family="sans-serif" font-size="14" lengthAdjust="spacing" textLength="57.0391" x="196.8242" y="933.042">Browser</text></g><g class="participant participant-head" data-participant="APP"><rect fill="#E2E2F0" height="46.5938" rx="2.5" ry="2.5" style="stroke:#181818;stroke-width:0.5;" width="81.7236" x="519.9004" y="71"/><text fill="#000000" font-family="sans-serif" font-size="14" lengthAdjust="spacing" textLength="67.7236" x="526.9004" y="90.9951">Flask App</text><text fill="#000000" font-family="sans-serif" font-size="14" lengthAdjust="spacing" textLength="58.8984" x="531.313" y="107.292">(app.py)</text></g><g class="participant participant-tail" data-participant="APP"><rect fill="#E2E2F0" height="46.5938" rx="2.5" ry="2.5" style="stroke:#181818;stroke-width:0.5;" width="81.7236" x="519.9004" y="913.0469"/><text fill="#000000" font-family="sans-serif" font-size="14" lengthAdjust="spacing" textLength="67.7236" x="526.9004" y="933.042">Flask App</text><text fill="#000000" font-family="sans-serif" font-size="14" lengthAdjust="spacing" textLength="58.8984" x="531.313" y="949.3389">(app.py)</text></g><g class="participant participant-head" data-participant="AUTH"><rect fill="#E2E2F0" height="46.5938" rx="2.5" ry="2.5" style="stroke:#181818;stroke-width:0.5;" width="113.709" x="771.2666" y="71"/><text fill="#000000" font-family="sans-serif" font-size="14" lengthAdjust="spacing" textLength="98.6289" x="778.8066" y="90.9951">Auth Manager</text><text fill="#000000" font-family="sans-serif" font-size="14" lengthAdjust="spacing" textLength="99.709" x="778.2666" y="107.292">(core/auth.py)</text></g><g class="participant participant-tail" data-participant="AUTH"><rect fill="#E2E2F0" height="46.5938" rx="2.5" ry="2.5" style="stroke:#181818;stroke-width:0.5;" width="113.709" x="771.2666" y="913.0469"/><text fill="#000000" font-family="sans-serif" font-size="14" lengthAdjust="spacing" textLength="98.6289" x="778.8066" y="933.042">Auth Manager</text><text fill="#000000" font-family="sans-serif" font-size="14" lengthAdjust="spacing" textLength="99.709" x="778.2666" y="949.3389">(core/auth.py)</text></g><g class="participant participant-head" data-participant="DB"><rect fill="#E2E2F0" height="46.5938" rx="2.5" ry="2.5" style="stroke:#181818;stroke-width:0.5;" width="80.8008" x="1162.376" y="71"/><text fill="#000000" font-family="sans-serif" font-size="14" lengthAdjust="spacing" textLength="66.8008" x="1169.376" y="90.9951">Database</text><text fill="#000000" font-family="sans-serif" font-size="14" lengthAdjust="spacing" textLength="56.6221" x="1174.4653" y="107.292">(SQLite)</text></g><g class="participant participant-tail" data-participant="DB"><rect fill="#E2E2F0" height="46.5938" rx="2.5" ry="2.5" style="stroke:#181818;stroke-width:0.5;" width="80.8008" x="1162.376" y="913.0469"/><text fill="#000000" font-family="sans-serif" font-size="14" lengthAdjust="spacing" textLength="66.8008" x="1169.376" y="933.042">Database</text><text fill="#000000" font-family="sans-serif" font-size="14" lengthAdjust="spacing" textLength="56.6221" x="1174.4653" y="949.3389">(SQLite)</text></g><g><title>Browser</title><rect fill="#FFFFFF" height="216.9297" style="stroke:#181818;stroke-width:1;" width="10" x="220.3438" y="199.9922"/></g><g><title>Browser</title><rect fill="#FFFFFF" height="116.5313" style="stroke:#181818;stroke-width:1;" width="10" x="220.3438" y="446.0547"/></g><g><title>Browser</title><rect fill="#FFFFFF" height="116.5313" style="stroke:#181818;stroke-width:1;" width="10" x="220.3438" y="591.7188"/></g><g><title>Browser</title><rect fill="#FFFFFF" height="158.6641" style="stroke:#181818;stroke-width:1;" width="10" x="220.3438" y="737.3828"/></g><g><title>Flask App</title><rect fill="#FFFFFF" height="187.7969" style="stroke:#181818;stroke-width:1;" width="10" x="555.7622" y="229.125"/></g><g><title>Flask App</title><rect fill="#FFFFFF" height="87.3984" style="stroke:#181818;stroke-width:1;" width="10" x="555.7622" y="475.1875"/></g><g><title>Flask App</title><rect fill="#FFFFFF" height="87.3984" style="stroke:#181818;stroke-width:1;" width="10" x="555.7622" y="620.8516"/></g><g><title>Flask App</title><rect fill="#FFFFFF" height="129.5313" style="stroke:#181818;stroke-width:1;" width="10" x="555.7622" y="766.5156"/></g><g><title>Auth Manager</title><rect fill="#FFFFFF" height="87.3984" style="stroke:#181818;stroke-width:1;" width="10" x="823.1211" y="258.2578"/></g><g><title>Database</title><rect fill="#FFFFFF" height="29.1328" style="stroke:#181818;stroke-width:1;" width="10" x="1197.7764" y="287.3906"/></g><g><title>Database</title><rect fill="#FFFFFF" height="29.1328" style="stroke:#181818;stroke-width:1;" width="10" x="1197.7764" y="504.3203"/></g><g><title>Database</title><rect fill="#FFFFFF" height="29.1328" style="stroke:#181818;stroke-width:1;" width="10" x="1197.7764" y="649.9844"/></g><g><title>Database</title><rect fill="#FFFFFF" height="29.1328" style="stroke:#181818;stroke-width:1;" width="10" x="1197.7764" y="837.7813"/></g><path d="M5,133.5938 L5,173.5938 L1234,173.5938 L1234,143.5938 L1224,133.5938 L5,133.5938" fill="#FEFFDD" style="stroke:#181818;stroke-width:0.5;"/><path d="M1224,133.5938 L1224,143.5938 L1234,143.5938 L1224,133.5938" fill="#FEFFDD" style="stroke:#181818;stroke-width:0.5;"/><text fill="#000000" font-family="sans-serif" font-size="13" lengthAdjust="spacing" textLength="311.4668" x="457.2888" y="150.6606">Scenario: Admin logs in, views dashboard stats,</text><text fill="#000000" font-family="sans-serif" font-size="13" lengthAdjust="spacing" textLength="246.6826" x="457.2888" y="165.7935">and promotes a user to Manager role.</text><g class="message" data-participant-1="A" data-participant-2="B"><polygon fill="#181818" points="208.3438,195.9922,218.3438,199.9922,208.3438,203.9922,212.3438,199.9922" style="stroke:#181818;stroke-width:1;"/><line style="stroke:#181818;stroke-width:1;" x1="34.4321" x2="214.3438" y1="199.9922" y2="199.9922"/><text fill="#000000" font-family="sans-serif" font-size="13" lengthAdjust="spacing" textLength="115.4258" x="41.4321" y="194.9263">POST /auth/signin</text></g><g class="message" data-participant-1="B" data-participant-2="APP"><polygon fill="#181818" points="543.7622,225.125,553.7622,229.125,543.7622,233.125,547.7622,229.125" style="stroke:#181818;stroke-width:1;"/><line style="stroke:#181818;stroke-width:1;" x1="230.3438" x2="549.7622" y1="229.125" y2="229.125"/><text fill="#000000" font-family="sans-serif" font-size="13" lengthAdjust="spacing" textLength="48.8706" x="237.3438" y="224.0591">signin()</text></g><g class="message" data-participant-1="APP" data-participant-2="AUTH"><polygon fill="#181818" points="811.1211,254.2578,821.1211,258.2578,811.1211,262.2578,815.1211,258.2578" style="stroke:#181818;stroke-width:1;"/><line style="stroke:#181818;stroke-width:1;" x1="565.7622" x2="817.1211" y1="258.2578" y2="258.2578"/><text fill="#000000" font-family="sans-serif" font-size="13" lengthAdjust="spacing" textLength="187.9795" x="572.7622" y="253.1919">verify_user(email, password)</text></g><g class="message" data-participant-1="AUTH" data-participant-2="DB"><polygon fill="#181818" points="1185.7764,283.3906,1195.7764,287.3906,1185.7764,291.3906,1189.7764,287.3906" style="stroke:#181818;stroke-width:1;"/><line style="stroke:#181818;stroke-width:1;" x1="833.1211" x2="1191.7764" y1="287.3906" y2="287.3906"/><text fill="#000000" font-family="sans-serif" font-size="13" lengthAdjust="spacing" textLength="345.6553" x="840.1211" y="282.3247">SELECT id, email, name, avatar, role, google_token...</text></g><g class="message" data-participant-1="DB" data-participant-2="AUTH"><polygon fill="#181818" points="844.1211,312.5234,834.1211,316.5234,844.1211,320.5234,840.1211,316.5234" style="stroke:#181818;stroke-width:1;"/><line style="stroke:#181818;stroke-width:1;stroke-dasharray:2,2;" x1="838.1211" x2="1201.7764" y1="316.5234" y2="316.5234"/><text fill="#000000" font-family="sans-serif" font-size="13" lengthAdjust="spacing" textLength="61.3818" x="850.1211" y="311.4575">User Row</text></g><g class="message" data-participant-1="AUTH" data-participant-2="APP"><polygon fill="#181818" points="576.7622,341.6563,566.7622,345.6563,576.7622,349.6563,572.7622,345.6563" style="stroke:#181818;stroke-width:1;"/><line style="stroke:#181818;stroke-width:1;stroke-dasharray:2,2;" x1="570.7622" x2="827.1211" y1="345.6563" y2="345.6563"/><text fill="#000000" font-family="sans-serif" font-size="13" lengthAdjust="spacing" textLength="59.6299" x="582.7622" y="340.5903">User Dict</text></g><g class="message" data-participant-1="APP" data-participant-2="APP"><line style="stroke:#181818;stroke-width:1;" x1="565.7622" x2="607.7622" y1="374.7891" y2="374.7891"/><line style="stroke:#181818;stroke-width:1;" x1="607.7622" x2="607.7622" y1="374.7891" y2="387.7891"/><line style="stroke:#181818;stroke-width:1;" x1="566.7622" x2="607.7622" y1="387.7891" y2="387.7891"/><polygon fill="#181818" points="576.7622,383.7891,566.7622,387.7891,576.7622,391.7891,572.7622,387.7891" style="stroke:#181818;stroke-width:1;"/><text fill="#000000" font-family="sans-serif" font-size="13" lengthAdjust="spacing" textLength="105.022" x="572.7622" y="369.7231">login_user(user)</text></g><g class="message" data-participant-1="APP" data-participant-2="B"><polygon fill="#181818" points="236.3438,412.9219,226.3438,416.9219,236.3438,420.9219,232.3438,416.9219" style="stroke:#181818;stroke-width:1;"/><line style="stroke:#181818;stroke-width:1;stroke-dasharray:2,2;" x1="230.3438" x2="559.7622" y1="416.9219" y2="416.9219"/><text fill="#000000" font-family="sans-serif" font-size="13" lengthAdjust="spacing" textLength="103.7271" x="242.3438" y="411.856">Redirect /admin</text></g><g class="message" data-participant-1="A" data-participant-2="B"><polygon fill="#181818" points="208.3438,442.0547,218.3438,446.0547,208.3438,450.0547,212.3438,446.0547" style="stroke:#181818;stroke-width:1;"/><line style="stroke:#181818;stroke-width:1;" x1="34.4321" x2="214.3438" y1="446.0547" y2="446.0547"/><text fill="#000000" font-family="sans-serif" font-size="13" lengthAdjust="spacing" textLength="152.0962" x="41.4321" y="440.9888">Load Admin Dashboard</text></g><g class="message" data-participant-1="B" data-participant-2="APP"><polygon fill="#181818" points="543.7622,471.1875,553.7622,475.1875,543.7622,479.1875,547.7622,475.1875" style="stroke:#181818;stroke-width:1;"/><line style="stroke:#181818;stroke-width:1;" x1="230.3438" x2="549.7622" y1="475.1875" y2="475.1875"/><text fill="#000000" font-family="sans-serif" font-size="13" lengthAdjust="spacing" textLength="135.77" x="237.3438" y="470.1216">GET /api/admin/stats</text></g><g class="message" data-participant-1="APP" data-participant-2="DB"><polygon fill="#181818" points="1185.7764,500.3203,1195.7764,504.3203,1185.7764,508.3203,1189.7764,504.3203" style="stroke:#181818;stroke-width:1;"/><line style="stroke:#181818;stroke-width:1;" x1="565.7622" x2="1191.7764" y1="504.3203" y2="504.3203"/><text fill="#000000" font-family="sans-serif" font-size="13" lengthAdjust="spacing" textLength="229.0552" x="572.7622" y="499.2544">Count users, managers, products...</text></g><g class="message" data-participant-1="DB" data-participant-2="APP"><polygon fill="#181818" points="576.7622,529.4531,566.7622,533.4531,576.7622,537.4531,572.7622,533.4531" style="stroke:#181818;stroke-width:1;"/><line style="stroke:#181818;stroke-width:1;stroke-dasharray:2,2;" x1="570.7622" x2="1201.7764" y1="533.4531" y2="533.4531"/><text fill="#000000" font-family="sans-serif" font-size="13" lengthAdjust="spacing" textLength="45.3794" x="582.7622" y="528.3872">Counts</text></g><g class="message" data-participant-1="APP" data-participant-2="B"><polygon fill="#181818" points="236.3438,558.5859,226.3438,562.5859,236.3438,566.5859,232.3438,562.5859" style="stroke:#181818;stroke-width:1;"/><line style="stroke:#181818;stroke-width:1;stroke-dasharray:2,2;" x1="230.3438" x2="559.7622" y1="562.5859" y2="562.5859"/><text fill="#000000" font-family="sans-serif" font-size="13" lengthAdjust="spacing" textLength="216.1821" x="242.3438" y="557.52">JSON {success: true, stats: {...}}</text></g><g class="message" data-participant-1="A" data-participant-2="B"><polygon fill="#181818" points="208.3438,587.7188,218.3438,591.7188,208.3438,595.7188,212.3438,591.7188" style="stroke:#181818;stroke-width:1;"/><line style="stroke:#181818;stroke-width:1;" x1="34.4321" x2="214.3438" y1="591.7188" y2="591.7188"/><text fill="#000000" font-family="sans-serif" font-size="13" lengthAdjust="spacing" textLength="91.7554" x="41.4321" y="586.6528">View User List</text></g><g class="message" data-participant-1="B" data-participant-2="APP"><polygon fill="#181818" points="543.7622,616.8516,553.7622,620.8516,543.7622,624.8516,547.7622,620.8516" style="stroke:#181818;stroke-width:1;"/><line style="stroke:#181818;stroke-width:1;" x1="230.3438" x2="549.7622" y1="620.8516" y2="620.8516"/><text fill="#000000" font-family="sans-serif" font-size="13" lengthAdjust="spacing" textLength="94.0786" x="237.3438" y="615.7856">GET /api/users</text></g><g class="message" data-participant-1="APP" data-participant-2="DB"><polygon fill="#181818" points="1185.7764,645.9844,1195.7764,649.9844,1185.7764,653.9844,1189.7764,649.9844" style="stroke:#181818;stroke-width:1;"/><line style="stroke:#181818;stroke-width:1;" x1="565.7622" x2="1191.7764" y1="649.9844" y2="649.9844"/><text fill="#000000" font-family="sans-serif" font-size="13" lengthAdjust="spacing" textLength="277.3862" x="572.7622" y="644.9185">SELECT id, email, name, role, created_at...</text></g><g class="message" data-participant-1="DB" data-participant-2="APP"><polygon fill="#181818" points="576.7622,675.1172,566.7622,679.1172,576.7622,683.1172,572.7622,679.1172" style="stroke:#181818;stroke-width:1;"/><line style="stroke:#181818;stroke-width:1;stroke-dasharray:2,2;" x1="570.7622" x2="1201.7764" y1="679.1172" y2="679.1172"/><text fill="#000000" font-family="sans-serif" font-size="13" lengthAdjust="spacing" textLength="68.1548" x="582.7622" y="674.0513">User Rows</text></g><g class="message" data-participant-1="APP" data-participant-2="B"><polygon fill="#181818" points="236.3438,704.25,226.3438,708.25,236.3438,712.25,232.3438,708.25" style="stroke:#181818;stroke-width:1;"/><line style="stroke:#181818;stroke-width:1;stroke-dasharray:2,2;" x1="230.3438" x2="559.7622" y1="708.25" y2="708.25"/><text fill="#000000" font-family="sans-serif" font-size="13" lengthAdjust="spacing" textLength="213.2051" x="242.3438" y="703.1841">JSON {success: true, users: [...]}</text></g><g class="message" data-participant-1="A" data-participant-2="B"><polygon fill="#181818" points="208.3438,733.3828,218.3438,737.3828,208.3438,741.3828,212.3438,737.3828" style="stroke:#181818;stroke-width:1;"/><line style="stroke:#181818;stroke-width:1;" x1="34.4321" x2="214.3438" y1="737.3828" y2="737.3828"/><text fill="#000000" font-family="sans-serif" font-size="13" lengthAdjust="spacing" textLength="166.9116" x="41.4321" y="732.3169">Promote User to Manager</text></g><g class="message" data-participant-1="B" data-participant-2="APP"><polygon fill="#181818" points="543.7622,762.5156,553.7622,766.5156,543.7622,770.5156,547.7622,766.5156" style="stroke:#181818;stroke-width:1;"/><line style="stroke:#181818;stroke-width:1;" x1="230.3438" x2="549.7622" y1="766.5156" y2="766.5156"/><text fill="#000000" font-family="sans-serif" font-size="13" lengthAdjust="spacing" textLength="206.8701" x="237.3438" y="761.4497">POST /api/admin/users/promote</text></g><g class="message" data-participant-1="APP" data-participant-2="APP"><line style="stroke:#181818;stroke-width:1;" x1="565.7622" x2="607.7622" y1="795.6484" y2="795.6484"/><line style="stroke:#181818;stroke-width:1;" x1="607.7622" x2="607.7622" y1="795.6484" y2="808.6484"/><line style="stroke:#181818;stroke-width:1;" x1="566.7622" x2="607.7622" y1="808.6484" y2="808.6484"/><polygon fill="#181818" points="576.7622,804.6484,566.7622,808.6484,576.7622,812.6484,572.7622,808.6484" style="stroke:#181818;stroke-width:1;"/><text fill="#000000" font-family="sans-serif" font-size="13" lengthAdjust="spacing" textLength="233.3589" x="572.7622" y="790.5825">Check current_user.role == 'admin'</text></g><g class="message" data-participant-1="APP" data-participant-2="DB"><polygon fill="#181818" points="1185.7764,833.7813,1195.7764,837.7813,1185.7764,841.7813,1189.7764,837.7813" style="stroke:#181818;stroke-width:1;"/><line style="stroke:#181818;stroke-width:1;" x1="565.7622" x2="1191.7764" y1="837.7813" y2="837.7813"/><text fill="#000000" font-family="sans-serif" font-size="13" lengthAdjust="spacing" textLength="311.7334" x="572.7622" y="832.7153">UPDATE users SET role='manager' WHERE id=?</text></g><g class="message" data-participant-1="DB" data-participant-2="APP"><polygon fill="#181818" points="576.7622,862.9141,566.7622,866.9141,576.7622,870.9141,572.7622,866.9141" style="stroke:#181818;stroke-width:1;"/><line style="stroke:#181818;stroke-width:1;stroke-dasharray:2,2;" x1="570.7622" x2="1201.7764" y1="866.9141" y2="866.9141"/><text fill="#000000" font-family="sans-serif" font-size="13" lengthAdjust="spacing" textLength="52.3301" x="582.7622" y="861.8481">Success</text></g><g class="message" data-participant-1="APP" data-participant-2="B"><polygon fill="#181818" points="236.3438,892.0469,226.3438,896.0469,236.3438,900.0469,232.3438,896.0469" style="stroke:#181818;stroke-width:1;"/><line style="stroke:#181818;stroke-width:1;stroke-dasharray:2,2;" x1="230.3438" x2="559.7622" y1="896.0469" y2="896.0469"/><text fill="#000000" font-family="sans-serif" font-size="13" lengthAdjust="spacing" textLength="301.4185" x="242.3438" y="890.981">JSON {success: true, message: "Promoted..."}</text></g><!--SRC=[bPHTRzem58RlyokEk1WWPN0VYKr9GrTDR6K4jejjgauT3ooIEB8TK5Nrl_VO3byLT2qIAE3tVBpFESO8Kt18aArvbSDr8RSHn7afAaXHh-ubgXm-m49p1T-mmYKlUMMWXtKzg1_wGO3CI0KT5z81r107DIeZcAYHX9r4oIq5kwFazEYwGBs6kAx_LBjyFiDqUYgC6xDggolICgdu4EctGyHYVdCQagB1UzISvDcFYJ3S2zCa22ffECWD6Of3-mFGAsEyGYNapdiXbnf45S96yAs6V8z26pGw11U41AnMigHy6X0QoyZ8NQEWPC47WQLgAmP131y_GHB1z3QRW-j_gCMo4fLbA3P8NIL1OaK4809_rkiVJYqNUZi56Ow0F8X_3tUsS8-NA8eGQjHwArL-76RXs0yRc583sNWolfg3o4DeeoeiUGX8SbIXQpo4fPJBWjyPIOin60mE-GXPIctkkt2xCPFR8EV76bznvyQ9Ki7CiSftrZgoAi8kAk_7VlJzeSSsuxbGd1b2PqTqaeV077rD3gmd4lENwtmUzvUn7KejVFQXc_DPz9RWbMneoMoBj0kbdpSzqJBa3JFw4YvRnuNgbwmEDhzcjz_XKJUCSQqZCAgXMRXk8dYan4zFRtF-anRNKvy8RVxZsJcvwFRIllWzOOfJJ7w7vZNRkoLvhtFNMGI_AVVVDpgV-YlfInxkuta4xMNSpztL6xQt-lpLSrDSSRO6rYX5_uPkOGUM1en6q7M9kiS05zCqde-z5w8vT-H6tNPnkl3hPZmR4z_HvulyCe_bdVHAUgOI4NHQA3bnxBpAyHa0]--></g></svg>