<svg xmlns="http://www.w3.org/2000/svg" xmlns:xlink="http://www.w3.org/1999/xlink" contentStyleType="text/css" data-diagram-type="SEQUENCE" height="2188px" preserveAspectRatio="none" style="width:1719px;height:2188px;background:#FFFFFF;" version="1.1" viewBox="0 0 1719 2188" width="1719px" zoomAndPan="magnify"><title>Use Case Scenario 1: Manager Creates Automated Workflow (Frontend Flow)</title><defs/><g><text fill="#000000" font-family="sans-serif" font-size="14" font-weight="bold" lengthAdjust="spacing" textLength="608.4326" x="562.4673" y="27.9951">Use Case Scenario 1: Manager Creates Automated Workflow (Frontend Flow)</text><g><title>Browser</title><rect fill="#FFFFFF" height="164.6641" style="stroke:#181818;stroke-width:1;" width="10" x="295.0664" y="199.9922"/></g><g><title>Workspace Page</title><rect fill="#FFFFFF" height="93.3984" style="stroke:#181818;stroke-width:1;" width="10" x="478.8394" y="400.7891"/></g><g><title>Workspace Page</title><rect fill="#FFFFFF" height="93.3984" style="stroke:#181818;stroke-width:1;" width="10" x="478.8394" y="1939.5"/></g><g><title>Workflow Builder</title><rect fill="#FFFFFF" height="35.1328" style="stroke:#181818;stroke-width:1;" width="10" x="717.0181" y="559.4531"/></g><g><title>Workflow Builder</title><rect fill="#FFFFFF" height="77.2656" style="stroke:#181818;stroke-width:1;" width="10" x="717.0181" y="630.7188"/></g><g><title>Workflow Builder</title><rect fill="#FFFFFF" height="77.2656" style="stroke:#181818;stroke-width:1;" width="10" x="717.0181" y="744.1172"/></g><g><title>Workflow Builder</title><rect fill="#FFFFFF" height="77.2656" style="stroke:#181818;stroke-width:1;" width="10" x="717.0181" y="857.5156"/></g><g><title>Workflow Builder</title><rect fill="#FFFFFF" height="77.2656" style="stroke:#181818;stroke-width:1;" width="10" x="717.0181" y="970.9141"/></g><g><title>Workflow Builder</title><rect fill="#FFFFFF" height="161.5313" style="stroke:#181818;stroke-width:1;" width="10" x="717.0181" y="1084.3125"/></g><g><title>Workflow Builder</title><rect fill="#FFFFFF" height="64.2656" style="stroke:#181818;stroke-width:1;" width="10" x="717.0181" y="1281.9766"/></g><g><title>Workflow Builder</title><rect fill="#FFFFFF" height="291.0625" style="stroke:#181818;stroke-width:1;" width="10" x="717.0181" y="1583.1719"/></g><g><title>Property Panel</title><rect fill="#FFFFFF" height="35.1328" style="stroke:#181818;stroke-width:1;" width="10" x="1104.8682" y="1311.1094"/></g><g><title>Property Panel</title><rect fill="#FFFFFF" height="35.1328" style="stroke:#181818;stroke-width:1;" width="10" x="1104.8682" y="1382.375"/></g><g><title>Property Panel</title><rect fill="#FFFFFF" height="93.3984" style="stroke:#181818;stroke-width:1;" width="10" x="1104.8682" y="1453.6406"/></g><g><title>Save API</title><rect fill="#FFFFFF" height="71.2656" style="stroke:#181818;stroke-width:1;" width="10" x="1485.9517" y="1725.7031"/></g><g><title>Manager</title><rect fill="#000000" fill-opacity="0.00000" height="1989.5703" width="8" x="47.6831" y="118.5938"/><line style="stroke:#181818;stroke-width:0.5;stroke-dasharray:5,5;" x1="51" x2="51" y1="118.5938" y2="2108.1641"/></g><g><title>Browser</title><rect fill="#000000" fill-opacity="0.00000" height="1989.5703" width="8" x="296.0664" y="118.5938"/><line style="stroke:#181818;stroke-width:0.5;stroke-dasharray:5,5;" x1="300.0498" x2="300.0498" y1="118.5938" y2="2108.1641"/></g><g><title>Workspace Page</title><rect fill="#000000" fill-opacity="0.00000" height="1989.5703" width="8" x="479.8394" y="118.5938"/><line style="stroke:#181818;stroke-width:0.5;stroke-dasharray:5,5;" x1="483.6826" x2="483.6826" y1="118.5938" y2="2108.1641"/></g><g><title>Workflow Builder</title><rect fill="#000000" fill-opacity="0.00000" height="1989.5703" width="8" x="718.0181" y="118.5938"/><line style="stroke:#181818;stroke-width:0.5;stroke-dasharray:5,5;" x1="721.4839" x2="721.4839" y1="118.5938" y2="2108.1641"/></g><g><title>Property Panel</title><rect fill="#000000" fill-opacity="0.00000" height="1989.5703" width="8" x="1105.8682" y="118.5938"/><line style="stroke:#181818;stroke-width:0.5;stroke-dasharray:5,5;" x1="1109.5474" x2="1109.5474" y1="118.5938" y2="2108.1641"/></g><g><title>Save API</title><rect fill="#000000" fill-opacity="0.00000" height="1989.5703" width="8" x="1486.9517" y="118.5938"/><line style="stroke:#181818;stroke-width:0.5;stroke-dasharray:5,5;" x1="1490.0918" x2="1490.0918" y1="118.5938" y2="2108.1641"/></g><g class="participant participant-head" data-participant="M"><text fill="#000000" font-family="sans-serif" font-size="14" lengthAdjust="spacing" textLength="61.3662" x="18" y="115.292">Manager</text><ellipse cx="51.6831" cy="50.7969" fill="#E2E2F0" rx="8" ry="8" style="stroke:#181818;stroke-width:0.5;"/><path d="M51.6831,58.7969 L51.6831,85.7969 M38.6831,66.7969 L64.6831,66.7969 M51.6831,85.7969 L38.6831,100.7969 M51.6831,85.7969 L64.6831,100.7969" fill="none" style="stroke:#181818;stroke-width:0.5;"/></g><g class="participant participant-tail" data-participant="M"><text fill="#000000" font-family="sans-serif" font-size="14" lengthAdjust="spacing" textLength="61.3662" x="18" y="2120.1592">Manager</text><ellipse cx="51.6831" cy="2131.9609" fill="#E2E2F0" rx="8" ry="8" style="stroke:#181818;stroke-width:0.5;"/><path d="M51.6831,2139.9609 L51.6831,2166.9609 M38.6831,2147.9609 L64.6831,2147.9609 M51.6831,2166.9609 L38.6831,2181.9609 M51.6831,2166.9609 L64.6831,2181.9609" fill="none" style="stroke:#181818;stroke-width:0.5;"/></g><g class="participant participant-head" data-participant="F"><rect fill="#E2E2F0" height="46.5938" rx="2.5" ry="2.5" style="stroke:#181818;stroke-width:0.5;" width="88.0332" x="256.0498" y="71"/><text fill="#000000" font-family="sans-serif" font-size="14" lengthAdjust="spacing" textLength="57.0391" x="271.5469" y="90.9951">Browser</text><text fill="#000000" font-family="sans-serif" font-size="14" lengthAdjust="spacing" textLength="74.0332" x="263.0498" y="107.292">(Frontend)</text></g><g class="participant participant-tail" data-participant="F"><rect fill="#E2E2F0" height="46.5938" rx="2.5" ry="2.5" style="stroke:#181818;stroke-width:0.5;" width="88.0332" x="256.0498" y="2107.1641"/><text fill="#000000" font-family="sans-serif" font-size="14" lengthAdjust="spacing" textLength="57.0391" x="271.5469" y="2127.1592">Browser</text><text fill="#000000" font-family="sans-serif" font-size="14" lengthAdjust="spacing" textLength="74.0332" x="263.0498" y="2143.4561">(Frontend)</text></g><g class="participant participant-head" data-participant="WP"><rect fill="#E2E2F0" height="30.2969" rx="2.5" ry="2.5" style="stroke:#181818;stroke-width:0.5;" width="130.3135" x="418.6826" y="87.2969"/><text fill="#000000" font-family="sans-serif" font-size="14" lengthAdjust="spacing" textLength="116.3135" x="425.6826" y="107.292">Workspace Page</text></g><g class="participant participant-tail" data-participant="WP"><rect fill="#E2E2F0" height="30.2969" rx="2.5" ry="2.5" style="stroke:#181818;stroke-width:0.5;" width="130.3135" x="418.6826" y="2107.1641"/><text fill="#000000" font-family="sans-serif" font-size="14" lengthAdjust="spacing" textLength="116.3135" x="425.6826" y="2127.1592">Workspace Page</text></g><g class="participant participant-head" data-participant="WB"><rect fill="#E2E2F0" height="30.2969" rx="2.5" ry="2.5" style="stroke:#181818;stroke-width:0.5;" width="133.0684" x="655.4839" y="87.2969"/><text fill="#000000" font-family="sans-serif" font-size="14" lengthAdjust="spacing" textLength="119.0684" x="662.4839" y="107.292">Workflow Builder</text></g><g class="participant participant-tail" data-participant="WB"><rect fill="#E2E2F0" height="30.2969" rx="2.5" ry="2.5" style="stroke:#181818;stroke-width:0.5;" width="133.0684" x="655.4839" y="2107.1641"/><text fill="#000000" font-family="sans-serif" font-size="14" lengthAdjust="spacing" textLength="119.0684" x="662.4839" y="2127.1592">Workflow Builder</text></g><g class="participant participant-head" data-participant="PP"><rect fill="#E2E2F0" height="30.2969" rx="2.5" ry="2.5" style="stroke:#181818;stroke-width:0.5;" width="116.6416" x="1051.5474" y="87.2969"/><text fill="#000000" font-family="sans-serif" font-size="14" lengthAdjust="spacing" textLength="102.6416" x="1058.5474" y="107.292">Property Panel</text></g><g class="participant participant-tail" data-participant="PP"><rect fill="#E2E2F0" height="30.2969" rx="2.5" ry="2.5" style="stroke:#181818;stroke-width:0.5;" width="116.6416" x="1051.5474" y="2107.1641"/><text fill="#000000" font-family="sans-serif" font-size="14" lengthAdjust="spacing" textLength="102.6416" x="1058.5474" y="2127.1592">Property Panel</text></g><g class="participant participant-head" data-participant="API"><rect fill="#E2E2F0" height="46.5938" rx="2.5" ry="2.5" style="stroke:#181818;stroke-width:0.5;" width="125.7197" x="1428.0918" y="71"/><text fill="#000000" font-family="sans-serif" font-size="14" lengthAdjust="spacing" textLength="60.9629" x="1460.4702" y="90.9951">Save API</text><text fill="#000000" font-family="sans-serif" font-size="14" lengthAdjust="spacing" textLength="111.7197" x="1435.0918" y="107.292">(/api/workflows)</text></g><g class="participant participant-tail" data-participant="API"><rect fill="#E2E2F0" height="46.5938" rx="2.5" ry="2.5" style="stroke:#181818;stroke-width:0.5;" width="125.7197" x="1428.0918" y="2107.1641"/><text fill="#000000" font-family="sans-serif" font-size="14" lengthAdjust="spacing" textLength="60.9629" x="1460.4702" y="2127.1592">Save API</text><text fill="#000000" font-family="sans-serif" font-size="14" lengthAdjust="spacing" textLength="111.7197" x="1435.0918" y="2143.4561">(/api/workflows)</text></g><g><title>Browser</title><rect fill="#FFFFFF" height="164.6641" style="stroke:#181818;stroke-width:1;" width="10" x="295.0664" y="199.9922"/></g><g><title>Workspace Page</title><rect fill="#FFFFFF" height="93.3984" style="stroke:#181818;stroke-width:1;" width="10" x="478.8394" y="400.7891"/></g><g><title>Workspace Page</title><rect fill="#FFFFFF" height="93.3984" style="stroke:#181818;stroke-width:1;" width="10" x="478.8394" y="1939.5"/></g><g><title>Workflow Builder</title><rect fill="#FFFFFF" height="35.1328" style="stroke:#181818;stroke-width:1;" width="10" x="717.0181" y="559.4531"/></g><g><title>Workflow Builder</title><rect fill="#FFFFFF" height="77.2656" style="stroke:#181818;stroke-width:1;" width="10" x="717.0181" y="630.7188"/></g><g><title>Workflow Builder</title><rect fill="#FFFFFF" height="77.2656" style="stroke:#181818;stroke-width:1;" width="10" x="717.0181" y="744.1172"/></g><g><title>Workflow Builder</title><rect fill="#FFFFFF" height="77.2656" style="stroke:#181818;stroke-width:1;" width="10" x="717.0181" y="857.5156"/></g><g><title>Workflow Builder</title><rect fill="#FFFFFF" height="77.2656" style="stroke:#181818;stroke-width:1;" width="10" x="717.0181" y="970.9141"/></g><g><title>Workflow Builder</title><rect fill="#FFFFFF" height="161.5313" style="stroke:#181818;stroke-width:1;" width="10" x="717.0181" y="1084.3125"/></g><g><title>Workflow Builder</title><rect fill="#FFFFFF" height="64.2656" style="stroke:#181818;stroke-width:1;" width="10" x="717.0181" y="1281.9766"/></g><g><title>Workflow Builder</title><rect fill="#FFFFFF" height="291.0625" style="stroke:#181818;stroke-width:1;" width="10" x="717.0181" y="1583.1719"/></g><g><title>Property Panel</title><rect fill="#FFFFFF" height="35.1328" style="stroke:#181818;stroke-width:1;" width="10" x="1104.8682" y="1311.1094"/></g><g><title>Property Panel</title><rect fill="#FFFFFF" height="35.1328" style="stroke:#181818;stroke-width:1;" width="10" x="1104.8682" y="1382.375"/></g><g><title>Property Panel</title><rect fill="#FFFFFF" height="93.3984" style="stroke:#181818;stroke-width:1;" width="10" x="1104.8682" y="1453.6406"/></g><g><title>Save API</title><rect fill="#FFFFFF" height="71.2656" style="stroke:#181818;stroke-width:1;" width="10" x="1485.9517" y="1725.7031"/></g><path d="M5,133.5938 L5,173.5938 L1535,173.5938 L1535,143.5938 L1525,133.5938 L5,133.5938" fill="#FEFFDD" style="stroke:#181818;stroke-width:0.5;"/><path d="M1525,133.5938 L1525,143.5938 L1535,143.5938 L1525,133.5938" fill="#FEFFDD" style="stroke:#181818;stroke-width:0.5;"/><text fill="#000000" font-family="sans-serif" font-size="13" lengthAdjust="spacing" textLength="477.8135" x="482.2036" y="150.6606">Scenario: Manager logs in, accesses Workspace, opens Workflow Builder,</text><text fill="#000000" font-family="sans-serif" font-size="13" lengthAdjust="spacing" textLength="567.4043" x="482.2036" y="165.7935">drags and drops nodes, connects them, configures properties, and saves the workflow.</text><g class="message" data-participant-1="M" data-participant-2="F"><polygon fill="#181818" points="283.0664,195.9922,293.0664,199.9922,283.0664,203.9922,287.0664,199.9922" style="stroke:#181818;stroke-width:1;"/><line style="stroke:#181818;stroke-width:1;" x1="51.6831" x2="289.0664" y1="199.9922" y2="199.9922"/><text fill="#000000" font-family="sans-serif" font-size="13" lengthAdjust="spacing" textLength="224.3833" x="58.6831" y="194.9263">Open browser, access /auth/signin</text></g><g class="message" data-participant-1="F" data-participant-2="F"><line style="stroke:#181818;stroke-width:1;" x1="305.0664" x2="347.0664" y1="229.125" y2="229.125"/><line style="stroke:#181818;stroke-width:1;" x1="347.0664" x2="347.0664" y1="229.125" y2="242.125"/><line style="stroke:#181818;stroke-width:1;" x1="306.0664" x2="347.0664" y1="242.125" y2="242.125"/><polygon fill="#181818" points="316.0664,238.125,306.0664,242.125,316.0664,246.125,312.0664,242.125" style="stroke:#181818;stroke-width:1;"/><text fill="#000000" font-family="sans-serif" font-size="13" lengthAdjust="spacing" textLength="118.3901" x="312.0664" y="224.0591">Display login form</text></g><g class="message" data-participant-1="M" data-participant-2="F"><polygon fill="#181818" points="283.0664,267.2578,293.0664,271.2578,283.0664,275.2578,287.0664,271.2578" style="stroke:#181818;stroke-width:1;"/><line style="stroke:#181818;stroke-width:1;" x1="51.6831" x2="289.0664" y1="271.2578" y2="271.2578"/><text fill="#000000" font-family="sans-serif" font-size="13" lengthAdjust="spacing" textLength="212.4624" x="58.6831" y="266.1919">Enter email/password (Manager)</text></g><g class="message" data-participant-1="F" data-participant-2="API"><polygon fill="#181818" points="1478.9517,296.3906,1488.9517,300.3906,1478.9517,304.3906,1482.9517,300.3906" style="stroke:#181818;stroke-width:1;"/><line style="stroke:#181818;stroke-width:1;" x1="305.0664" x2="1484.9517" y1="300.3906" y2="300.3906"/><text fill="#000000" font-family="sans-serif" font-size="13" lengthAdjust="spacing" textLength="201.7412" x="312.0664" y="295.3247">POST /auth/signin (credentials)</text></g><g class="message" data-participant-1="API" data-participant-2="F"><polygon fill="#181818" points="316.0664,325.5234,306.0664,329.5234,316.0664,333.5234,312.0664,329.5234" style="stroke:#181818;stroke-width:1;"/><line style="stroke:#181818;stroke-width:1;stroke-dasharray:2,2;" x1="310.0664" x2="1489.9517" y1="329.5234" y2="329.5234"/><text fill="#000000" font-family="sans-serif" font-size="13" lengthAdjust="spacing" textLength="150.4141" x="322.0664" y="324.4575">200 OK, session cookie</text></g><g class="message" data-participant-1="F" data-participant-2="F"><line style="stroke:#181818;stroke-width:1;" x1="305.0664" x2="347.0664" y1="363.6563" y2="363.6563"/><line style="stroke:#181818;stroke-width:1;" x1="347.0664" x2="347.0664" y1="363.6563" y2="376.6563"/><line style="stroke:#181818;stroke-width:1;" x1="300.0664" x2="347.0664" y1="376.6563" y2="376.6563"/><polygon fill="#181818" points="310.0664,372.6563,300.0664,376.6563,310.0664,380.6563,306.0664,376.6563" style="stroke:#181818;stroke-width:1;"/><text fill="#000000" font-family="sans-serif" font-size="13" lengthAdjust="spacing" textLength="149.7729" x="312.0664" y="358.5903">Redirect to /workspace</text></g><g class="message" data-participant-1="M" data-participant-2="WP"><polygon fill="#181818" points="466.8394,396.7891,476.8394,400.7891,466.8394,404.7891,470.8394,400.7891" style="stroke:#181818;stroke-width:1;"/><line style="stroke:#181818;stroke-width:1;" x1="51.6831" x2="472.8394" y1="400.7891" y2="400.7891"/><text fill="#000000" font-family="sans-serif" font-size="13" lengthAdjust="spacing" textLength="168.5366" x="58.6831" y="395.7231">View saved Workflows list</text></g><g class="message" data-participant-1="WP" data-participant-2="API"><polygon fill="#181818" points="1478.9517,425.9219,1488.9517,429.9219,1478.9517,433.9219,1482.9517,429.9219" style="stroke:#181818;stroke-width:1;"/><line style="stroke:#181818;stroke-width:1;" x1="488.8394" x2="1484.9517" y1="429.9219" y2="429.9219"/><text fill="#000000" font-family="sans-serif" font-size="13" lengthAdjust="spacing" textLength="123.957" x="495.8394" y="424.856">GET /api/workflows</text></g><g class="message" data-participant-1="API" data-participant-2="WP"><polygon fill="#181818" points="499.8394,455.0547,489.8394,459.0547,499.8394,463.0547,495.8394,459.0547" style="stroke:#181818;stroke-width:1;"/><line style="stroke:#181818;stroke-width:1;stroke-dasharray:2,2;" x1="493.8394" x2="1489.9517" y1="459.0547" y2="459.0547"/><text fill="#000000" font-family="sans-serif" font-size="13" lengthAdjust="spacing" textLength="161.7827" x="505.8394" y="453.9888">JSON: [{id, name, data}]</text></g><g class="message" data-participant-1="WP" data-participant-2="WP"><line style="stroke:#181818;stroke-width:1;" x1="488.8394" x2="530.8394" y1="493.1875" y2="493.1875"/><line style="stroke:#181818;stroke-width:1;" x1="530.8394" x2="530.8394" y1="493.1875" y2="506.1875"/><line style="stroke:#181818;stroke-width:1;" x1="483.8394" x2="530.8394" y1="506.1875" y2="506.1875"/><polygon fill="#181818" points="493.8394,502.1875,483.8394,506.1875,493.8394,510.1875,489.8394,506.1875" style="stroke:#181818;stroke-width:1;"/><text fill="#000000" font-family="sans-serif" font-size="13" lengthAdjust="spacing" textLength="204.1787" x="495.8394" y="488.1216">Render "My Workflows" section</text></g><g class="message" data-participant-1="M" data-participant-2="WP"><polygon fill="#181818" points="471.8394,526.3203,481.8394,530.3203,471.8394,534.3203,475.8394,530.3203" style="stroke:#181818;stroke-width:1;"/><line style="stroke:#181818;stroke-width:1;" x1="51.6831" x2="477.8394" y1="530.3203" y2="530.3203"/><text fill="#000000" font-family="sans-serif" font-size="13" lengthAdjust="spacing" textLength="204.6421" x="58.6831" y="525.2544">Click "Workflow Builder" button</text></g><g class="message" data-participant-1="WP" data-participant-2="WB"><polygon fill="#181818" points="705.0181,555.4531,715.0181,559.4531,705.0181,563.4531,709.0181,559.4531" style="stroke:#181818;stroke-width:1;"/><line style="stroke:#181818;stroke-width:1;stroke-dasharray:2,2;" x1="483.8394" x2="711.0181" y1="559.4531" y2="559.4531"/><text fill="#000000" font-family="sans-serif" font-size="13" lengthAdjust="spacing" textLength="203.29" x="490.8394" y="554.3872">Navigate to /workspace/builder</text></g><g class="message" data-participant-1="WB" data-participant-2="WB"><line style="stroke:#181818;stroke-width:1;" x1="727.0181" x2="769.0181" y1="593.5859" y2="593.5859"/><line style="stroke:#181818;stroke-width:1;" x1="769.0181" x2="769.0181" y1="593.5859" y2="606.5859"/><line style="stroke:#181818;stroke-width:1;" x1="722.0181" x2="769.0181" y1="606.5859" y2="606.5859"/><polygon fill="#181818" points="732.0181,602.5859,722.0181,606.5859,732.0181,610.5859,728.0181,606.5859" style="stroke:#181818;stroke-width:1;"/><text fill="#000000" font-family="sans-serif" font-size="13" lengthAdjust="spacing" textLength="223.2725" x="734.0181" y="588.52">Load empty canvas + tool sidebar</text></g><g class="message" data-participant-1="M" data-participant-2="WB"><polygon fill="#181818" points="705.0181,626.7188,715.0181,630.7188,705.0181,634.7188,709.0181,630.7188" style="stroke:#181818;stroke-width:1;"/><line style="stroke:#181818;stroke-width:1;" x1="51.6831" x2="711.0181" y1="630.7188" y2="630.7188"/><text fill="#000000" font-family="sans-serif" font-size="13" lengthAdjust="spacing" textLength="212.1196" x="58.6831" y="625.6528">Drag "Webhook" node to canvas</text></g><g class="message" data-participant-1="WB" data-participant-2="WB"><line style="stroke:#181818;stroke-width:1;" x1="727.0181" x2="769.0181" y1="659.8516" y2="659.8516"/><line style="stroke:#181818;stroke-width:1;" x1="769.0181" x2="769.0181" y1="659.8516" y2="672.8516"/><line style="stroke:#181818;stroke-width:1;" x1="728.0181" x2="769.0181" y1="672.8516" y2="672.8516"/><polygon fill="#181818" points="738.0181,668.8516,728.0181,672.8516,738.0181,676.8516,734.0181,672.8516" style="stroke:#181818;stroke-width:1;"/><text fill="#000000" font-family="sans-serif" font-size="13" lengthAdjust="spacing" textLength="301.3994" x="734.0181" y="654.7856">createWorkflowNode({name: "Webhook", ...})</text></g><g class="message" data-participant-1="WB" data-participant-2="WB"><line style="stroke:#181818;stroke-width:1;" x1="727.0181" x2="769.0181" y1="706.9844" y2="706.9844"/><line style="stroke:#181818;stroke-width:1;" x1="769.0181" x2="769.0181" y1="706.9844" y2="719.9844"/><line style="stroke:#181818;stroke-width:1;" x1="722.0181" x2="769.0181" y1="719.9844" y2="719.9844"/><polygon fill="#181818" points="732.0181,715.9844,722.0181,719.9844,732.0181,723.9844,728.0181,719.9844" style="stroke:#181818;stroke-width:1;"/><text fill="#000000" font-family="sans-serif" font-size="13" lengthAdjust="spacing" textLength="153.6831" x="734.0181" y="701.9185">Render node on canvas</text></g><g class="message" data-participant-1="M" data-participant-2="WB"><polygon fill="#181818" points="705.0181,740.1172,715.0181,744.1172,705.0181,748.1172,709.0181,744.1172" style="stroke:#181818;stroke-width:1;"/><line style="stroke:#181818;stroke-width:1;" x1="51.6831" x2="711.0181" y1="744.1172" y2="744.1172"/><text fill="#000000" font-family="sans-serif" font-size="13" lengthAdjust="spacing" textLength="264.5703" x="58.6831" y="739.0513">Drag "Slack Notification" node to canvas</text></g><g class="message" data-participant-1="WB" data-participant-2="WB"><line style="stroke:#181818;stroke-width:1;" x1="727.0181" x2="769.0181" y1="773.25" y2="773.25"/><line style="stroke:#181818;stroke-width:1;" x1="769.0181" x2="769.0181" y1="773.25" y2="786.25"/><line style="stroke:#181818;stroke-width:1;" x1="728.0181" x2="769.0181" y1="786.25" y2="786.25"/><polygon fill="#181818" points="738.0181,782.25,728.0181,786.25,738.0181,790.25,734.0181,786.25" style="stroke:#181818;stroke-width:1;"/><text fill="#000000" font-family="sans-serif" font-size="13" lengthAdjust="spacing" textLength="353.8501" x="734.0181" y="768.1841">createWorkflowNode({name: "Slack Notification", ...})</text></g><g class="message" data-participant-1="WB" data-participant-2="WB"><line style="stroke:#181818;stroke-width:1;" x1="727.0181" x2="769.0181" y1="820.3828" y2="820.3828"/><line style="stroke:#181818;stroke-width:1;" x1="769.0181" x2="769.0181" y1="820.3828" y2="833.3828"/><line style="stroke:#181818;stroke-width:1;" x1="722.0181" x2="769.0181" y1="833.3828" y2="833.3828"/><polygon fill="#181818" points="732.0181,829.3828,722.0181,833.3828,732.0181,837.3828,728.0181,833.3828" style="stroke:#181818;stroke-width:1;"/><text fill="#000000" font-family="sans-serif" font-size="13" lengthAdjust="spacing" textLength="133.9355" x="734.0181" y="815.3169">Render second node</text></g><g class="message" data-participant-1="M" data-participant-2="WB"><polygon fill="#181818" points="705.0181,853.5156,715.0181,857.5156,705.0181,861.5156,709.0181,857.5156" style="stroke:#181818;stroke-width:1;"/><line style="stroke:#181818;stroke-width:1;" x1="51.6831" x2="711.0181" y1="857.5156" y2="857.5156"/><text fill="#000000" font-family="sans-serif" font-size="13" lengthAdjust="spacing" textLength="198.1421" x="58.6831" y="852.4497">Click "Connect" toolbar button</text></g><g class="message" data-participant-1="WB" data-participant-2="WB"><line style="stroke:#181818;stroke-width:1;" x1="727.0181" x2="769.0181" y1="886.6484" y2="886.6484"/><line style="stroke:#181818;stroke-width:1;" x1="769.0181" x2="769.0181" y1="886.6484" y2="899.6484"/><line style="stroke:#181818;stroke-width:1;" x1="728.0181" x2="769.0181" y1="899.6484" y2="899.6484"/><polygon fill="#181818" points="738.0181,895.6484,728.0181,899.6484,738.0181,903.6484,734.0181,899.6484" style="stroke:#181818;stroke-width:1;"/><text fill="#000000" font-family="sans-serif" font-size="13" lengthAdjust="spacing" textLength="157.6758" x="734.0181" y="881.5825">Switch to connect-mode</text></g><g class="message" data-participant-1="WB" data-participant-2="WB"><line style="stroke:#181818;stroke-width:1;" x1="727.0181" x2="769.0181" y1="933.7813" y2="933.7813"/><line style="stroke:#181818;stroke-width:1;" x1="769.0181" x2="769.0181" y1="933.7813" y2="946.7813"/><line style="stroke:#181818;stroke-width:1;" x1="722.0181" x2="769.0181" y1="946.7813" y2="946.7813"/><polygon fill="#181818" points="732.0181,942.7813,722.0181,946.7813,732.0181,950.7813,728.0181,946.7813" style="stroke:#181818;stroke-width:1;"/><text fill="#000000" font-family="sans-serif" font-size="13" lengthAdjust="spacing" textLength="220.8794" x="734.0181" y="928.7153">Highlight valid targets (CSS class)</text></g><g class="message" data-participant-1="M" data-participant-2="WB"><polygon fill="#181818" points="705.0181,966.9141,715.0181,970.9141,705.0181,974.9141,709.0181,970.9141" style="stroke:#181818;stroke-width:1;"/><line style="stroke:#181818;stroke-width:1;" x1="51.6831" x2="711.0181" y1="970.9141" y2="970.9141"/><text fill="#000000" font-family="sans-serif" font-size="13" lengthAdjust="spacing" textLength="202.1538" x="58.6831" y="965.8481">Click "Webhook" node (source)</text></g><g class="message" data-participant-1="WB" data-participant-2="WB"><line style="stroke:#181818;stroke-width:1;" x1="727.0181" x2="769.0181" y1="1000.0469" y2="1000.0469"/><line style="stroke:#181818;stroke-width:1;" x1="769.0181" x2="769.0181" y1="1000.0469" y2="1013.0469"/><line style="stroke:#181818;stroke-width:1;" x1="728.0181" x2="769.0181" y1="1013.0469" y2="1013.0469"/><polygon fill="#181818" points="738.0181,1009.0469,728.0181,1013.0469,738.0181,1017.0469,734.0181,1013.0469" style="stroke:#181818;stroke-width:1;"/><text fill="#000000" font-family="sans-serif" font-size="13" lengthAdjust="spacing" textLength="248.1172" x="734.0181" y="994.981">builderMode.connectionStart = node1</text></g><g class="message" data-participant-1="WB" data-participant-2="WB"><line style="stroke:#181818;stroke-width:1;" x1="727.0181" x2="769.0181" y1="1047.1797" y2="1047.1797"/><line style="stroke:#181818;stroke-width:1;" x1="769.0181" x2="769.0181" y1="1047.1797" y2="1060.1797"/><line style="stroke:#181818;stroke-width:1;" x1="722.0181" x2="769.0181" y1="1060.1797" y2="1060.1797"/><polygon fill="#181818" points="732.0181,1056.1797,722.0181,1060.1797,732.0181,1064.1797,728.0181,1060.1797" style="stroke:#181818;stroke-width:1;"/><text fill="#000000" font-family="sans-serif" font-size="13" lengthAdjust="spacing" textLength="197.666" x="734.0181" y="1042.1138">Add class "connection-source"</text></g><g class="message" data-participant-1="M" data-participant-2="WB"><polygon fill="#181818" points="705.0181,1080.3125,715.0181,1084.3125,705.0181,1088.3125,709.0181,1084.3125" style="stroke:#181818;stroke-width:1;"/><line style="stroke:#181818;stroke-width:1;" x1="51.6831" x2="711.0181" y1="1084.3125" y2="1084.3125"/><text fill="#000000" font-family="sans-serif" font-size="13" lengthAdjust="spacing" textLength="172.1802" x="58.6831" y="1079.2466">Click "Slack" node (target)</text></g><g class="message" data-participant-1="WB" data-participant-2="WB"><line style="stroke:#181818;stroke-width:1;" x1="727.0181" x2="769.0181" y1="1113.4453" y2="1113.4453"/><line style="stroke:#181818;stroke-width:1;" x1="769.0181" x2="769.0181" y1="1113.4453" y2="1126.4453"/><line style="stroke:#181818;stroke-width:1;" x1="728.0181" x2="769.0181" y1="1126.4453" y2="1126.4453"/><polygon fill="#181818" points="738.0181,1122.4453,728.0181,1126.4453,738.0181,1130.4453,734.0181,1126.4453" style="stroke:#181818;stroke-width:1;"/><text fill="#000000" font-family="sans-serif" font-size="13" lengthAdjust="spacing" textLength="207.3716" x="734.0181" y="1108.3794">drawConnection(source, target)</text></g><g class="message" data-participant-1="WB" data-participant-2="WB"><line style="stroke:#181818;stroke-width:1;" x1="727.0181" x2="769.0181" y1="1155.5781" y2="1155.5781"/><line style="stroke:#181818;stroke-width:1;" x1="769.0181" x2="769.0181" y1="1155.5781" y2="1168.5781"/><line style="stroke:#181818;stroke-width:1;" x1="728.0181" x2="769.0181" y1="1168.5781" y2="1168.5781"/><polygon fill="#181818" points="738.0181,1164.5781,728.0181,1168.5781,738.0181,1172.5781,734.0181,1168.5781" style="stroke:#181818;stroke-width:1;"/><text fill="#000000" font-family="sans-serif" font-size="13" lengthAdjust="spacing" textLength="209.5552" x="734.0181" y="1150.5122">Draw SVG curve between nodes</text></g><g class="message" data-participant-1="WB" data-participant-2="WB"><line style="stroke:#181818;stroke-width:1;" x1="727.0181" x2="769.0181" y1="1197.7109" y2="1197.7109"/><line style="stroke:#181818;stroke-width:1;" x1="769.0181" x2="769.0181" y1="1197.7109" y2="1210.7109"/><line style="stroke:#181818;stroke-width:1;" x1="728.0181" x2="769.0181" y1="1210.7109" y2="1210.7109"/><polygon fill="#181818" points="738.0181,1206.7109,728.0181,1210.7109,738.0181,1214.7109,734.0181,1210.7109" style="stroke:#181818;stroke-width:1;"/><text fill="#000000" font-family="sans-serif" font-size="13" lengthAdjust="spacing" textLength="316.0498" x="734.0181" y="1192.645">builderState.connections.push({source, target})</text></g><g class="message" data-participant-1="WB" data-participant-2="WB"><line style="stroke:#181818;stroke-width:1;" x1="727.0181" x2="769.0181" y1="1244.8438" y2="1244.8438"/><line style="stroke:#181818;stroke-width:1;" x1="769.0181" x2="769.0181" y1="1244.8438" y2="1257.8438"/><line style="stroke:#181818;stroke-width:1;" x1="722.0181" x2="769.0181" y1="1257.8438" y2="1257.8438"/><polygon fill="#181818" points="732.0181,1253.8438,722.0181,1257.8438,732.0181,1261.8438,728.0181,1257.8438" style="stroke:#181818;stroke-width:1;"/><text fill="#000000" font-family="sans-serif" font-size="13" lengthAdjust="spacing" textLength="149.7222" x="734.0181" y="1239.7778">Reset connection state</text></g><g class="message" data-participant-1="M" data-participant-2="WB"><polygon fill="#181818" points="705.0181,1277.9766,715.0181,1281.9766,705.0181,1285.9766,709.0181,1281.9766" style="stroke:#181818;stroke-width:1;"/><line style="stroke:#181818;stroke-width:1;" x1="51.6831" x2="711.0181" y1="1281.9766" y2="1281.9766"/><text fill="#000000" font-family="sans-serif" font-size="13" lengthAdjust="spacing" textLength="164.4233" x="58.6831" y="1276.9106">Click "Slack" node to edit</text></g><g class="message" data-participant-1="WB" data-participant-2="PP"><polygon fill="#181818" points="1092.8682,1307.1094,1102.8682,1311.1094,1092.8682,1315.1094,1096.8682,1311.1094" style="stroke:#181818;stroke-width:1;"/><line style="stroke:#181818;stroke-width:1;" x1="727.0181" x2="1098.8682" y1="1311.1094" y2="1311.1094"/><text fill="#000000" font-family="sans-serif" font-size="13" lengthAdjust="spacing" textLength="268.4614" x="734.0181" y="1306.0435">selectNode(node) &#8594; Open Property Panel</text></g><g class="message" data-participant-1="PP" data-participant-2="PP"><line style="stroke:#181818;stroke-width:1;" x1="1114.8682" x2="1156.8682" y1="1345.2422" y2="1345.2422"/><line style="stroke:#181818;stroke-width:1;" x1="1156.8682" x2="1156.8682" y1="1345.2422" y2="1358.2422"/><line style="stroke:#181818;stroke-width:1;" x1="1109.8682" x2="1156.8682" y1="1358.2422" y2="1358.2422"/><polygon fill="#181818" points="1119.8682,1354.2422,1109.8682,1358.2422,1119.8682,1362.2422,1115.8682,1358.2422" style="stroke:#181818;stroke-width:1;"/><text fill="#000000" font-family="sans-serif" font-size="13" lengthAdjust="spacing" textLength="347.0835" x="1121.8682" y="1340.1763">Display: Node Name, Description, Channel, Condition</text></g><g class="message" data-participant-1="M" data-participant-2="PP"><polygon fill="#181818" points="1092.8682,1378.375,1102.8682,1382.375,1092.8682,1386.375,1096.8682,1382.375" style="stroke:#181818;stroke-width:1;"/><line style="stroke:#181818;stroke-width:1;" x1="51.6831" x2="1098.8682" y1="1382.375" y2="1382.375"/><text fill="#000000" font-family="sans-serif" font-size="13" lengthAdjust="spacing" textLength="302.8848" x="58.6831" y="1377.3091">Enter "order.total &gt;= 5000000" into Condition</text></g><g class="message" data-participant-1="PP" data-participant-2="PP"><line style="stroke:#181818;stroke-width:1;" x1="1114.8682" x2="1156.8682" y1="1416.5078" y2="1416.5078"/><line style="stroke:#181818;stroke-width:1;" x1="1156.8682" x2="1156.8682" y1="1416.5078" y2="1429.5078"/><line style="stroke:#181818;stroke-width:1;" x1="1109.8682" x2="1156.8682" y1="1429.5078" y2="1429.5078"/><polygon fill="#181818" points="1119.8682,1425.5078,1109.8682,1429.5078,1119.8682,1433.5078,1115.8682,1429.5078" style="stroke:#181818;stroke-width:1;"/><text fill="#000000" font-family="sans-serif" font-size="13" lengthAdjust="spacing" textLength="124.2935" x="1121.8682" y="1411.4419">Update input value</text></g><g class="message" data-participant-1="M" data-participant-2="PP"><polygon fill="#181818" points="1092.8682,1449.6406,1102.8682,1453.6406,1092.8682,1457.6406,1096.8682,1453.6406" style="stroke:#181818;stroke-width:1;"/><line style="stroke:#181818;stroke-width:1;" x1="51.6831" x2="1098.8682" y1="1453.6406" y2="1453.6406"/><text fill="#000000" font-family="sans-serif" font-size="13" lengthAdjust="spacing" textLength="137.7251" x="58.6831" y="1448.5747">Click "Save changes"</text></g><g class="message" data-participant-1="PP" data-participant-2="WB"><polygon fill="#181818" points="733.0181,1478.7734,723.0181,1482.7734,733.0181,1486.7734,729.0181,1482.7734" style="stroke:#181818;stroke-width:1;"/><line style="stroke:#181818;stroke-width:1;" x1="727.0181" x2="1103.8682" y1="1482.7734" y2="1482.7734"/><text fill="#000000" font-family="sans-serif" font-size="13" lengthAdjust="spacing" textLength="194.7588" x="739.0181" y="1477.7075">pushHistory({type: 'edit', ...})</text></g><g class="message" data-participant-1="PP" data-participant-2="WB"><polygon fill="#181818" points="733.0181,1507.9063,723.0181,1511.9063,733.0181,1515.9063,729.0181,1511.9063" style="stroke:#181818;stroke-width:1;"/><line style="stroke:#181818;stroke-width:1;" x1="727.0181" x2="1103.8682" y1="1511.9063" y2="1511.9063"/><text fill="#000000" font-family="sans-serif" font-size="13" lengthAdjust="spacing" textLength="187.5542" x="739.0181" y="1506.8403">Update node.dataset + DOM</text></g><g class="message" data-participant-1="WB" data-participant-2="WB"><line style="stroke:#181818;stroke-width:1;" x1="722.0181" x2="764.0181" y1="1541.0391" y2="1541.0391"/><line style="stroke:#181818;stroke-width:1;" x1="764.0181" x2="764.0181" y1="1541.0391" y2="1554.0391"/><line style="stroke:#181818;stroke-width:1;" x1="723.0181" x2="764.0181" y1="1554.0391" y2="1554.0391"/><polygon fill="#181818" points="733.0181,1550.0391,723.0181,1554.0391,733.0181,1558.0391,729.0181,1554.0391" style="stroke:#181818;stroke-width:1;"/><text fill="#000000" font-family="sans-serif" font-size="13" lengthAdjust="spacing" textLength="293.4839" x="729.0181" y="1535.9731">showNotification("Node updated", "success")</text></g><g class="message" data-participant-1="M" data-participant-2="WB"><polygon fill="#181818" points="705.0181,1579.1719,715.0181,1583.1719,705.0181,1587.1719,709.0181,1583.1719" style="stroke:#181818;stroke-width:1;"/><line style="stroke:#181818;stroke-width:1;" x1="51.6831" x2="711.0181" y1="1583.1719" y2="1583.1719"/><text fill="#000000" font-family="sans-serif" font-size="13" lengthAdjust="spacing" textLength="238.6655" x="58.6831" y="1578.106">Click "Save workflow" toolbar button</text></g><g class="message" data-participant-1="WB" data-participant-2="WB"><line style="stroke:#181818;stroke-width:1;" x1="727.0181" x2="769.0181" y1="1612.3047" y2="1612.3047"/><line style="stroke:#181818;stroke-width:1;" x1="769.0181" x2="769.0181" y1="1612.3047" y2="1625.3047"/><line style="stroke:#181818;stroke-width:1;" x1="728.0181" x2="769.0181" y1="1625.3047" y2="1625.3047"/><polygon fill="#181818" points="738.0181,1621.3047,728.0181,1625.3047,738.0181,1629.3047,734.0181,1625.3047" style="stroke:#181818;stroke-width:1;"/><text fill="#000000" font-family="sans-serif" font-size="13" lengthAdjust="spacing" textLength="172.5229" x="734.0181" y="1607.2388">Prompt for workflow name</text></g><g class="message" data-participant-1="M" data-participant-2="WB"><polygon fill="#181818" points="705.0181,1650.4375,715.0181,1654.4375,705.0181,1658.4375,709.0181,1654.4375" style="stroke:#181818;stroke-width:1;"/><line style="stroke:#181818;stroke-width:1;" x1="51.6831" x2="711.0181" y1="1654.4375" y2="1654.4375"/><text fill="#000000" font-family="sans-serif" font-size="13" lengthAdjust="spacing" textLength="191.5786" x="58.6831" y="1649.3716">Enter "VIP Order Notification"</text></g><g class="message" data-participant-1="WB" data-participant-2="WB"><line style="stroke:#181818;stroke-width:1;" x1="727.0181" x2="769.0181" y1="1683.5703" y2="1683.5703"/><line style="stroke:#181818;stroke-width:1;" x1="769.0181" x2="769.0181" y1="1683.5703" y2="1696.5703"/><line style="stroke:#181818;stroke-width:1;" x1="728.0181" x2="769.0181" y1="1696.5703" y2="1696.5703"/><polygon fill="#181818" points="738.0181,1692.5703,728.0181,1696.5703,738.0181,1700.5703,734.0181,1696.5703" style="stroke:#181818;stroke-width:1;"/><text fill="#000000" font-family="sans-serif" font-size="13" lengthAdjust="spacing" textLength="255.4995" x="734.0181" y="1678.5044">Collect nodes &amp; connections &#8594; payload</text></g><g class="message" data-participant-1="WB" data-participant-2="API"><polygon fill="#181818" points="1473.9517,1721.7031,1483.9517,1725.7031,1473.9517,1729.7031,1477.9517,1725.7031" style="stroke:#181818;stroke-width:1;"/><line style="stroke:#181818;stroke-width:1;" x1="727.0181" x2="1479.9517" y1="1725.7031" y2="1725.7031"/><text fill="#000000" font-family="sans-serif" font-size="13" lengthAdjust="spacing" textLength="378.0156" x="734.0181" y="1720.6372">POST /api/workflows {name, data: {nodes, connections}}</text></g><g class="message" data-participant-1="API" data-participant-2="API"><line style="stroke:#181818;stroke-width:1;" x1="1495.9517" x2="1537.9517" y1="1754.8359" y2="1754.8359"/><line style="stroke:#181818;stroke-width:1;" x1="1537.9517" x2="1537.9517" y1="1754.8359" y2="1767.8359"/><line style="stroke:#181818;stroke-width:1;" x1="1496.9517" x2="1537.9517" y1="1767.8359" y2="1767.8359"/><polygon fill="#181818" points="1506.9517,1763.8359,1496.9517,1767.8359,1506.9517,1771.8359,1502.9517,1767.8359" style="stroke:#181818;stroke-width:1;"/><text fill="#000000" font-family="sans-serif" font-size="13" lengthAdjust="spacing" textLength="209.4155" x="1502.9517" y="1749.77">Check user_id, insert/update DB</text></g><g class="message" data-participant-1="API" data-participant-2="WB"><polygon fill="#181818" points="738.0181,1792.9688,728.0181,1796.9688,738.0181,1800.9688,734.0181,1796.9688" style="stroke:#181818;stroke-width:1;"/><line style="stroke:#181818;stroke-width:1;stroke-dasharray:2,2;" x1="732.0181" x2="1489.9517" y1="1796.9688" y2="1796.9688"/><text fill="#000000" font-family="sans-serif" font-size="13" lengthAdjust="spacing" textLength="207.873" x="744.0181" y="1791.9028">200 OK {success: true, id: 123}</text></g><g class="message" data-participant-1="WB" data-participant-2="WB"><line style="stroke:#181818;stroke-width:1;" x1="727.0181" x2="769.0181" y1="1826.1016" y2="1826.1016"/><line style="stroke:#181818;stroke-width:1;" x1="769.0181" x2="769.0181" y1="1826.1016" y2="1839.1016"/><line style="stroke:#181818;stroke-width:1;" x1="728.0181" x2="769.0181" y1="1839.1016" y2="1839.1016"/><polygon fill="#181818" points="738.0181,1835.1016,728.0181,1839.1016,738.0181,1843.1016,734.0181,1839.1016" style="stroke:#181818;stroke-width:1;"/><text fill="#000000" font-family="sans-serif" font-size="13" lengthAdjust="spacing" textLength="304.6367" x="734.0181" y="1821.0356">showNotification("Workflow saved", "success")</text></g><g class="message" data-participant-1="WB" data-participant-2="WB"><line style="stroke:#181818;stroke-width:1;" x1="727.0181" x2="769.0181" y1="1873.2344" y2="1873.2344"/><line style="stroke:#181818;stroke-width:1;" x1="769.0181" x2="769.0181" y1="1873.2344" y2="1886.2344"/><line style="stroke:#181818;stroke-width:1;" x1="722.0181" x2="769.0181" y1="1886.2344" y2="1886.2344"/><polygon fill="#181818" points="732.0181,1882.2344,722.0181,1886.2344,732.0181,1890.2344,728.0181,1886.2344" style="stroke:#181818;stroke-width:1;"/><text fill="#000000" font-family="sans-serif" font-size="13" lengthAdjust="spacing" textLength="139.9849" x="734.0181" y="1868.1685">Update URL: ?id=123</text></g><g class="message" data-participant-1="M" data-participant-2="WB"><polygon fill="#181818" points="710.0181,1906.3672,720.0181,1910.3672,710.0181,1914.3672,714.0181,1910.3672" style="stroke:#181818;stroke-width:1;"/><line style="stroke:#181818;stroke-width:1;" x1="51.6831" x2="716.0181" y1="1910.3672" y2="1910.3672"/><text fill="#000000" font-family="sans-serif" font-size="13" lengthAdjust="spacing" textLength="171.7612" x="58.6831" y="1905.3013">Click "Back to Workspace"</text></g><g class="message" data-participant-1="WB" data-participant-2="WP"><polygon fill="#181818" points="499.8394,1935.5,489.8394,1939.5,499.8394,1943.5,495.8394,1939.5" style="stroke:#181818;stroke-width:1;"/><line style="stroke:#181818;stroke-width:1;stroke-dasharray:2,2;" x1="493.8394" x2="721.0181" y1="1939.5" y2="1939.5"/><text fill="#000000" font-family="sans-serif" font-size="13" lengthAdjust="spacing" textLength="188.627" x="505.8394" y="1934.4341">Navigate back to /workspace</text></g><g class="message" data-participant-1="WP" data-participant-2="API"><polygon fill="#181818" points="1478.9517,1964.6328,1488.9517,1968.6328,1478.9517,1972.6328,1482.9517,1968.6328" style="stroke:#181818;stroke-width:1;"/><line style="stroke:#181818;stroke-width:1;" x1="488.8394" x2="1484.9517" y1="1968.6328" y2="1968.6328"/><text fill="#000000" font-family="sans-serif" font-size="13" lengthAdjust="spacing" textLength="123.957" x="495.8394" y="1963.5669">GET /api/workflows</text></g><g class="message" data-participant-1="API" data-participant-2="WP"><polygon fill="#181818" points="499.8394,1993.7656,489.8394,1997.7656,499.8394,2001.7656,495.8394,1997.7656" style="stroke:#181818;stroke-width:1;"/><line style="stroke:#181818;stroke-width:1;stroke-dasharray:2,2;" x1="493.8394" x2="1489.9517" y1="1997.7656" y2="1997.7656"/><text fill="#000000" font-family="sans-serif" font-size="13" lengthAdjust="spacing" textLength="272.9619" x="505.8394" y="1992.6997">JSON: [..., {id: 123, name: "VIP Order..."}]</text></g><g class="message" data-participant-1="WP" data-participant-2="WP"><line style="stroke:#181818;stroke-width:1;" x1="488.8394" x2="530.8394" y1="2031.8984" y2="2031.8984"/><line style="stroke:#181818;stroke-width:1;" x1="530.8394" x2="530.8394" y1="2031.8984" y2="2044.8984"/><line style="stroke:#181818;stroke-width:1;" x1="483.8394" x2="530.8394" y1="2044.8984" y2="2044.8984"/><polygon fill="#181818" points="493.8394,2040.8984,483.8394,2044.8984,493.8394,2048.8984,489.8394,2044.8984" style="stroke:#181818;stroke-width:1;"/><text fill="#000000" font-family="sans-serif" font-size="13" lengthAdjust="spacing" textLength="190.6455" x="495.8394" y="2026.8325">Render updated workflow list</text></g><path d="M5,2052.8984 L5,2092.8984 L530,2092.8984 L530,2062.8984 L520,2052.8984 L5,2052.8984" fill="#FEFFDD" style="stroke:#181818;stroke-width:0.5;"/><path d="M520,2052.8984 L520,2062.8984 L530,2062.8984 L520,2052.8984" fill="#FEFFDD" style="stroke:#181818;stroke-width:0.5;"/><text fill="#000000" font-family="sans-serif" font-size="13" lengthAdjust="spacing" textLength="390.2222" x="68.387" y="2069.9653">End: Manager successfully created and saved the workflow.</text><text fill="#000000" font-family="sans-serif" font-size="13" lengthAdjust="spacing" textLength="334.312" x="68.387" y="2085.0981">Data is stored in DB and can be reopened anytime.</text><!--SRC=[fLRDRkCs4BxxAGOwT6siOoTRz28WMyHsihlTTIp4JNneYu8M6Pk8J0eaPSCmSkq3z17x91rIb2XvdKsBDP30FpFVVFFDQ6OCDnc3UyrWJF3VF6M2A2xX8eOf4MJ558mL8uPfk2gCtE0x2WkfdXupkOFkZPB2C47X1Z_sEXsI6gaWyguH40tJJawKuIdFYJ0GZPJSQQP-5xLlpvdTjCri29sJb462ICvYaNnjubYC2fvH7sqnQXibIkPCcJt229Ova-G8Pqws3AwIJqXfI78-t7bSNHB3NpeT8Gq3kKKrfdtt3U2h4Yj8bScL1YxwGDAKQOsYrNdq0Oa83SUi-mwAAeAU18MaI5Y3a9JfFgHI29OQ3MRDDkxZ8ryL2d7pCYzkhQoRnYIS6LJq1nrR5qkyqvd2sNkuYM66561PLg0Y2KDIcFLGyvNWmXQGRx78M8yRxpJXEi_8tYR71JnAjQdnhh602jY6y6oO4wqnDeMkLwDN8g1QCIIp-Q-jGD1D5QDC64uotUkW4PoLcE_Eps7skG-edkPIODBoYREQpHsZNA4cO2IuKZbrEvGrc9Vy5aaC3vpjd3QXQJLaN9kGABRL8gc9VhYsF9jTK7EpUB_CPxSn_7RWj0-2RB2gb1Zo_8U7i2PtA3kppy0-X8mm6umdHPCd1Wv4nnbFdqxrzB8m1lqilZKTnN1Bjdnb0LeA39UbHoEnKMSn0k_qHHAAXShnIKY9s69VlqL_cO7cb2s9QX4RLSJGSOATYRpOSerrY5nZsi0bo0l1KZSngbnkqQLxi6h50QWFWy7WkTTmyhgv0BRiPO1lqvfd15MxbOO_yfHOWR-VuGdC5ybYLQLxo2XxaQclxBXyb2EdEWfU5VOql_cEctJjqYZzpZOsHZ3uo5Vh3FyCR4d6AHYYLWm7HNSydqEQuRFOUurHkwPTBGkLijuBX7ntJT5qu2cXCdCCQ-3I8LmqhAyeBKb058pFoWZHQxnS0IfMPLuliSAnkHlN0NmAVQYSWY6somxc3nyWBHHE-oKpEuQZq8tPhxF4j4mpJJt82xtk7jhuHmsXcO7W0jfY_9zKiTOusio9J1ES3vfb2EmQrLhtu9-__Yx7UNl31NTSSqbIkViPZiF3Xhfrasl2TAfuRjdsORmcI3t3DzZG_7XK8TQfJ2nokG8Y7FnC3Omq98Ftb_3JkNj5k0mnhu1vcjrzJkrtNEI5w-U27GKFuIhXxCvEaVEAwUW4gjNOrkmZZdgfzjs3sUVuSB-n2h-f7kTWwWbOPGTseDjQleN9RDgei5xRGH6cGZToMXREbUACY7JX5chKEyc-MNRBlbem_t4YO9bnUjlrMtkw3HJ0VIKUFYKmizLepx06r5XcjfdAxeSV6bshNLlbP9_Xkl0UpVtTt8jm20imnW-jYyLYFJ-7LEp9vFQennkl6GfHu1dofrsbNE0xCoorXCaexDnHTH30mSiRWr45nkKqXejtFputnRPXlbMnUhswaw1Ti-3dk-7-xaiCFtDwYL5UUv17TcTWfzVdNgctN-xrnbvwiyRXybrt2FPn7mvUYV8YYHiTW3z7fsuJtxEXaTn5T7IQj4vU_CAUgTU2XcFNI_TOPDdUBrHQtwBqw1QrtXFi5E0Qx2E91dW4JaRE0LSrZcHGp9x83cHl-8Q52_PV]--></g></svg>